<svg width="15" height="15" viewBox="0 0 15 15" fill="none" xmlns="http://www.w3.org/2000/svg">
<path fill-rule="evenodd" clip-rule="evenodd" d="M6.13099 2.18714e-07H9.19626C9.94773 -5.54307e-06 10.5539 -1.01142e-05 11.0472 0.0336502C11.5545 0.068262 12.0031 0.141232 12.4278 0.317169C13.4488 0.740061 14.2599 1.5512 14.6828 2.57215C14.8588 2.9969 14.9317 3.44547 14.9663 3.95276C15 4.44609 15 5.05227 15 5.80373V5.86294C15 6.6144 15 7.22057 14.9663 7.71391C14.9317 8.2212 14.8588 8.66977 14.6828 9.09451C14.2599 10.1155 13.4488 10.9266 12.4278 11.3495C12.0031 11.5254 11.5545 11.5984 11.0472 11.633C10.5539 11.6667 9.94773 11.6667 9.19627 11.6667H7.02381C6.64082 11.6667 6.56446 11.6705 6.50217 11.6831C6.35702 11.7123 6.22229 11.7797 6.11182 11.8782C6.06441 11.9205 6.01551 11.9793 5.78571 12.2857L5.76776 12.3097C5.26299 12.9827 4.86075 13.519 4.5316 13.9068C4.2222 14.2713 3.87247 14.6378 3.45507 14.8104C2.30656 15.2852 0.983664 14.8442 0.349718 13.7753C0.119327 13.3868 0.0594867 12.8837 0.0306598 12.4065C-7.33261e-06 11.8988 -3.95361e-06 11.2284 2.18714e-07 10.3871V6.13099C-8.12594e-06 5.22784 -1.47832e-05 4.49938 0.0481819 3.90948C0.0978064 3.30211 0.20265 2.76862 0.45414 2.27504C0.853612 1.49103 1.49103 0.853612 2.27504 0.45414C2.76862 0.20265 3.30211 0.0978064 3.90948 0.0481819C4.49938 -1.47832e-05 5.22784 -8.12594e-06 6.13099 2.18714e-07ZM4.0452 1.70931C3.54089 1.75052 3.25115 1.82733 3.03169 1.93915C2.56129 2.17883 2.17883 2.56129 1.93915 3.03169C1.82733 3.25115 1.75052 3.54089 1.70931 4.0452C1.66732 4.55923 1.66667 5.2195 1.66667 6.16667V10.3571C1.66667 11.2351 1.66704 11.8548 1.69429 12.306C1.70778 12.5292 1.72663 12.6861 1.74878 12.7967C1.76756 12.8904 1.78393 12.9255 1.78484 12.9278C1.99624 13.2812 2.43427 13.4273 2.81547 13.2713C2.81754 13.2701 2.8517 13.2518 2.92297 13.1881C3.00703 13.1129 3.11626 12.9987 3.26098 12.8282C3.55352 12.4836 3.92561 11.9881 4.45238 11.2857C4.46446 11.2696 4.47642 11.2536 4.48829 11.2378C4.6619 11.0059 4.81445 10.8022 5.00212 10.6347C5.33352 10.339 5.73773 10.1369 6.17316 10.0492C6.41976 9.99954 6.67428 9.99974 6.96394 9.99997C6.98373 9.99998 7.00368 10 7.02381 10H9.16667C9.95464 10 10.5039 9.99955 10.9338 9.97022C11.3562 9.94139 11.6022 9.8875 11.79 9.8097C12.4026 9.55596 12.8893 9.06928 13.143 8.45671C13.2208 8.26889 13.2747 8.02289 13.3035 7.60046C13.3329 7.17055 13.3333 6.6213 13.3333 5.83333C13.3333 5.04536 13.3329 4.49612 13.3035 4.06621C13.2747 3.64378 13.2208 3.39778 13.143 3.20996C12.8893 2.59739 12.4026 2.1107 11.79 1.85697C11.6022 1.77917 11.3562 1.72527 10.9338 1.69645C10.5039 1.66712 9.95464 1.66667 9.16667 1.66667H6.16667C5.2195 1.66667 4.55923 1.66732 4.0452 1.70931Z" fill="white"/>
<path d="M4.16683 6.66667C4.62707 6.66667 5.00016 6.29357 5.00016 5.83333C5.00016 5.3731 4.62707 5 4.16683 5C3.70659 5 3.3335 5.3731 3.3335 5.83333C3.3335 6.29357 3.70659 6.66667 4.16683 6.66667Z" fill="white"/>
<path d="M8.3335 5.83333C8.3335 6.29357 7.9604 6.66667 7.50016 6.66667C7.03993 6.66667 6.66683 6.29357 6.66683 5.83333C6.66683 5.3731 7.03993 5 7.50016 5C7.9604 5 8.3335 5.3731 8.3335 5.83333Z" fill="white"/>
<path d="M11.6668 5.83333C11.6668 6.29357 11.2937 6.66667 10.8335 6.66667C10.3733 6.66667 10.0002 6.29357 10.0002 5.83333C10.0002 5.3731 10.3733 5 10.8335 5C11.2937 5 11.6668 5.3731 11.6668 5.83333Z" fill="white"/>
</svg>
