<svg width="16" height="17" viewBox="0 0 16 17" fill="none" xmlns="http://www.w3.org/2000/svg">
<path fill-rule="evenodd" clip-rule="evenodd" d="M6.9048 2.5H9.35701C9.95818 2.5 10.4431 2.49999 10.8378 2.52692C11.2436 2.55461 11.6025 2.61299 11.9423 2.75374C12.759 3.09205 13.408 3.74096 13.7463 4.55772C13.887 4.89752 13.9454 5.25638 13.9731 5.6622C14 6.05688 14 6.54181 14 7.14299V7.19035C14 7.79152 14 8.27646 13.9731 8.67113C13.9454 9.07696 13.887 9.43581 13.7463 9.77561C13.408 10.5924 12.759 11.2413 11.9423 11.5796C11.6025 11.7203 11.2436 11.7787 10.8378 11.8064C10.4431 11.8333 9.95819 11.8333 9.35702 11.8333H7.61905C7.31266 11.8333 7.25157 11.8364 7.20173 11.8465C7.08562 11.8698 6.97783 11.9237 6.88946 12.0026C6.85153 12.0364 6.81241 12.0835 6.62857 12.3286L6.61421 12.3477C6.21039 12.8861 5.8886 13.3152 5.62528 13.6254C5.37776 13.917 5.09797 14.2103 4.76406 14.3483C3.84524 14.7281 2.78693 14.3754 2.27977 13.5202C2.09546 13.2094 2.04759 12.807 2.02453 12.4252C1.99999 12.019 2 11.4827 2 10.8097V7.4048C1.99999 6.68227 1.99999 6.0995 2.03855 5.62758C2.07825 5.14168 2.16212 4.71489 2.36331 4.32003C2.68289 3.69282 3.19283 3.18289 3.82003 2.86331C4.21489 2.66212 4.64168 2.57825 5.12758 2.53855C5.5995 2.49999 6.18227 2.49999 6.9048 2.5ZM5.23616 3.86745C4.83272 3.90041 4.60092 3.96186 4.42535 4.05132C4.04903 4.24307 3.74307 4.54903 3.55132 4.92535C3.46186 5.10092 3.40041 5.33272 3.36745 5.73616C3.33385 6.14739 3.33333 6.6756 3.33333 7.43333V10.7857C3.33333 11.4881 3.33363 11.9838 3.35544 12.3448C3.36622 12.5234 3.3813 12.6489 3.39903 12.7373C3.41405 12.8123 3.42714 12.8404 3.42787 12.8422C3.59699 13.125 3.94741 13.2418 4.25237 13.1171C4.25403 13.116 4.28136 13.1014 4.33838 13.0505C4.40563 12.9903 4.49301 12.899 4.60879 12.7626C4.84282 12.4869 5.14049 12.0905 5.56191 11.5286C5.57157 11.5157 5.58114 11.5029 5.59063 11.4902C5.72952 11.3047 5.85156 11.1418 6.0017 11.0078C6.26682 10.7712 6.59019 10.6095 6.93853 10.5394C7.1358 10.4996 7.33942 10.4998 7.57115 10.5C7.58698 10.5 7.60295 10.5 7.61905 10.5H9.33333C9.96371 10.5 10.4031 10.4996 10.747 10.4762C11.085 10.4531 11.2818 10.41 11.432 10.3478C11.9221 10.1448 12.3114 9.75542 12.5144 9.26537C12.5767 9.11511 12.6198 8.91831 12.6428 8.58037C12.6663 8.23644 12.6667 7.79704 12.6667 7.16667C12.6667 6.53629 12.6663 6.0969 12.6428 5.75297C12.6198 5.41502 12.5767 5.21822 12.5144 5.06797C12.3114 4.57791 11.9221 4.18856 11.432 3.98557C11.2818 3.92334 11.085 3.88022 10.747 3.85716C10.4031 3.83369 9.96371 3.83333 9.33333 3.83333H6.93333C6.1756 3.83333 5.64739 3.83385 5.23616 3.86745Z" fill="#262E3D"/>
<path d="M5.33335 7.83333C5.70154 7.83333 6.00002 7.53486 6.00002 7.16667C6.00002 6.79848 5.70154 6.5 5.33335 6.5C4.96516 6.5 4.66669 6.79848 4.66669 7.16667C4.66669 7.53486 4.96516 7.83333 5.33335 7.83333Z" fill="#262E3D"/>
<path d="M8.66669 7.16667C8.66669 7.53486 8.36821 7.83333 8.00002 7.83333C7.63183 7.83333 7.33335 7.53486 7.33335 7.16667C7.33335 6.79848 7.63183 6.5 8.00002 6.5C8.36821 6.5 8.66669 6.79848 8.66669 7.16667Z" fill="#262E3D"/>
<path d="M11.3334 7.16667C11.3334 7.53486 11.0349 7.83333 10.6667 7.83333C10.2985 7.83333 10 7.53486 10 7.16667C10 6.79848 10.2985 6.5 10.6667 6.5C11.0349 6.5 11.3334 6.79848 11.3334 7.16667Z" fill="#262E3D"/>
</svg>
