<svg width="16" height="16" viewBox="0 0 16 16" fill="none" xmlns="http://www.w3.org/2000/svg">
<path d="M15.697 8.4871L8.71523 14.6744C7.75757 15.5234 6.45883 16.0002 5.10474 16C3.75064 15.9998 2.45209 15.5225 1.49477 14.6732C0.537445 13.8239 -0.000239259 12.6722 7.98682e-08 11.4713C0.000239419 10.2704 0.538383 9.11879 1.49604 8.26979L9.84767 0.88354C10.4861 0.317607 11.352 -0.000212151 12.2547 1.06249e-07C12.7017 0.000105205 13.1442 0.0782859 13.5571 0.230078C13.97 0.38187 14.3452 0.604302 14.6612 0.884672C14.9771 1.16504 15.2278 1.49786 15.3987 1.86413C15.5696 2.23039 15.6576 2.62293 15.6574 3.01933C15.6573 3.41573 15.5692 3.80822 15.398 4.17441C15.2268 4.54059 14.976 4.87329 14.6599 5.15351L14.6454 5.16559L6.4946 12.124C6.39795 12.2064 6.28394 12.2712 6.15907 12.3146C6.03421 12.3579 5.90094 12.3791 5.76686 12.3767C5.63279 12.3744 5.50055 12.3487 5.37768 12.3011C5.25481 12.2534 5.14372 12.1848 5.05076 12.0991C4.9578 12.0134 4.88479 11.9123 4.83589 11.8015C4.78699 11.6908 4.76316 11.5726 4.76577 11.4537C4.76838 11.3348 4.79737 11.2175 4.85108 11.1086C4.9048 10.9996 4.98219 10.9011 5.07884 10.8186L13.222 3.86777C13.4765 3.64063 13.6189 3.33313 13.6178 3.01291C13.6167 2.69268 13.4722 2.38596 13.2161 2.16023C13.0892 2.04846 12.9388 1.95993 12.7735 1.89971C12.6081 1.83948 12.4309 1.80874 12.2521 1.80923C11.891 1.81022 11.5452 1.93838 11.2907 2.16551L2.93903 9.5495C2.36464 10.0591 2.04204 10.7502 2.0422 11.4707C2.04227 11.8275 2.12159 12.1808 2.27562 12.5104C2.42964 12.84 2.65536 13.1394 2.93988 13.3916C3.22441 13.6439 3.56216 13.8439 3.93387 13.9804C4.30557 14.1169 4.70394 14.1871 5.10624 14.187C5.91872 14.1869 6.69785 13.9005 7.27224 13.3909L14.2541 7.20361C14.349 7.11939 14.4618 7.05258 14.5859 7.00699C14.7099 6.96141 14.8429 6.93795 14.9772 6.93795C15.1116 6.93795 15.2446 6.96141 15.3686 7.00699C15.4927 7.05258 15.6055 7.11939 15.7004 7.20361C15.7954 7.28784 15.8707 7.38783 15.9221 7.49787C15.9735 7.60792 16 7.72586 16 7.84498C16 7.96409 15.9735 8.08204 15.9221 8.19208C15.8707 8.30213 15.7954 8.40212 15.7004 8.48634L15.697 8.4871Z" fill="#262E3D"/>
</svg>
