<svg width="33" height="32" viewBox="0 0 33 32" fill="none" xmlns="http://www.w3.org/2000/svg">
<path d="M26.8569 0H12.8569C11.7961 0 10.7787 0.421427 10.0285 1.17157C9.27836 1.92172 8.85693 2.93913 8.85693 4C7.79607 4 6.77865 4.42143 6.02851 5.17157C5.27836 5.92172 4.85693 6.93913 4.85693 8V28C4.85693 29.0609 5.27836 30.0783 6.02851 30.8284C6.77865 31.5786 7.79607 32 8.85693 32H22.8569C23.9178 32 24.9352 31.5786 25.6854 30.8284C26.4355 30.0783 26.8569 29.0609 26.8569 28C27.9178 28 28.9352 27.5786 29.6854 26.8284C30.4355 26.0783 30.8569 25.0609 30.8569 24V4C30.8569 2.93913 30.4355 1.92172 29.6854 1.17157C28.9352 0.421427 27.9178 0 26.8569 0V0ZM26.8569 26V8C26.8569 6.93913 26.4355 5.92172 25.6854 5.17157C24.9352 4.42143 23.9178 4 22.8569 4H10.8569C10.8569 3.46957 11.0676 2.96086 11.4427 2.58579C11.8178 2.21071 12.3265 2 12.8569 2H26.8569C27.3874 2 27.8961 2.21071 28.2711 2.58579C28.6462 2.96086 28.8569 3.46957 28.8569 4V24C28.8569 24.5304 28.6462 25.0391 28.2711 25.4142C27.8961 25.7893 27.3874 26 26.8569 26ZM6.85693 8C6.85693 7.46957 7.06765 6.96086 7.44272 6.58579C7.81779 6.21071 8.3265 6 8.85693 6H22.8569C23.3874 6 23.8961 6.21071 24.2711 6.58579C24.6462 6.96086 24.8569 7.46957 24.8569 8V28C24.8569 28.5304 24.6462 29.0391 24.2711 29.4142C23.8961 29.7893 23.3874 30 22.8569 30H8.85693C8.3265 30 7.81779 29.7893 7.44272 29.4142C7.06765 29.0391 6.85693 28.5304 6.85693 28V8Z" fill="#262E3D"/>
</svg>
