<svg width="17" height="17" viewBox="0 0 17 17" fill="none" xmlns="http://www.w3.org/2000/svg">
<path fill-rule="evenodd" clip-rule="evenodd" d="M6.68741 1.87139C3.80151 2.60422 1.66667 5.21947 1.66667 8.33333C1.66667 12.0152 4.65143 15 8.33333 15C9.82771 15 11.207 14.5088 12.3192 13.6779C8.60588 12.8374 5.83333 9.51754 5.83333 5.55009C5.83333 4.23021 6.14065 2.98111 6.68741 1.87139ZM0 8.33333C0 3.73096 3.73096 0 8.33333 0L8.33541 2.48353e-07C8.65661 7.87775e-05 8.94917 0.184751 9.08741 0.474682C9.22565 0.764613 9.18496 1.10818 8.98281 1.35779C8.05513 2.50328 7.5 3.96073 7.5 5.55009C7.5 9.23143 10.4839 12.2159 14.165 12.2168C14.4862 12.2168 14.7788 12.4015 14.917 12.6914C15.0552 12.9814 15.0145 13.3249 14.8124 13.5746C13.286 15.4594 10.9503 16.6667 8.33333 16.6667C3.73096 16.6667 0 12.9357 0 8.33333Z" fill="#262E3D"/>
<path d="M10.8333 4.16715C11.2936 4.16715 11.6667 3.79406 11.6667 3.33382C11.6667 2.87358 11.2936 2.50049 10.8333 2.50049C10.3731 2.50049 10 2.87358 10 3.33382C10 3.79406 10.3731 4.16715 10.8333 4.16715Z" fill="#262E3D"/>
<path d="M15 10.0005C15 10.4607 14.6269 10.8338 14.1667 10.8338C13.7064 10.8338 13.3333 10.4607 13.3333 10.0005V9.16715H12.5C12.0398 9.16715 11.6667 8.79406 11.6667 8.33382C11.6667 7.87358 12.0398 7.50049 12.5 7.50049H13.3333V6.66715C13.3333 6.20692 13.7064 5.83382 14.1667 5.83382C14.6269 5.83382 15 6.20692 15 6.66715V7.50049H15.8333C16.2936 7.50049 16.6667 7.87358 16.6667 8.33382C16.6667 8.79406 16.2936 9.16715 15.8333 9.16715H15V10.0005Z" fill="#262E3D"/>
</svg>
