<svg width="16" height="16" viewBox="0 0 16 16" fill="none" xmlns="http://www.w3.org/2000/svg">
<path fill-rule="evenodd" clip-rule="evenodd" d="M6.6833 2.82963C4.37458 3.4159 2.66671 5.50809 2.66671 7.99919C2.66671 10.9447 5.05452 13.3325 8.00004 13.3325C9.19554 13.3325 10.299 12.9396 11.1887 12.2749C8.21808 11.6025 6.00004 8.94655 6.00004 5.77259C6.00004 4.71669 6.24589 3.7174 6.6833 2.82963ZM1.33337 7.99919C1.33337 4.31729 4.31814 1.33252 8.00004 1.33252L8.0017 1.33252C8.25866 1.33258 8.49271 1.48032 8.6033 1.71227C8.7139 1.94421 8.68134 2.21907 8.51962 2.41875C7.77748 3.33514 7.33337 4.5011 7.33337 5.77259C7.33337 8.71767 9.72047 11.1052 12.6654 11.1059C12.9223 11.106 13.1564 11.2537 13.267 11.4857C13.3776 11.7176 13.345 11.9925 13.1833 12.1922C11.9621 13.7 10.0936 14.6659 8.00004 14.6659C4.31814 14.6659 1.33337 11.6811 1.33337 7.99919Z" fill="#262E3D"/>
<path d="M9.99998 4.66683C10.3682 4.66683 10.6666 4.36835 10.6666 4.00016C10.6666 3.63197 10.3682 3.3335 9.99998 3.3335C9.63179 3.3335 9.33331 3.63197 9.33331 4.00016C9.33331 4.36835 9.63179 4.66683 9.99998 4.66683Z" fill="#262E3D"/>
<path d="M13.3333 9.3335C13.3333 9.70169 13.0348 10.0002 12.6666 10.0002C12.2985 10.0002 12 9.70169 12 9.3335V8.66683H11.3333C10.9651 8.66683 10.6666 8.36835 10.6666 8.00016C10.6666 7.63197 10.9651 7.3335 11.3333 7.3335H12V6.66683C12 6.29864 12.2985 6.00016 12.6666 6.00016C13.0348 6.00016 13.3333 6.29864 13.3333 6.66683V7.3335H14C14.3682 7.3335 14.6666 7.63197 14.6666 8.00016C14.6666 8.36835 14.3682 8.66683 14 8.66683H13.3333V9.3335Z" fill="#262E3D"/>
</svg>
