<svg width="40" height="40" viewBox="0 0 40 40" fill="none" xmlns="http://www.w3.org/2000/svg">
<rect x="0.5" y="0.5" width="39" height="39" rx="19.5" stroke="#262E3D"/>
<path d="M28.4813 20.6053L20.7882 28.2928C19.733 29.3476 18.3019 29.9401 16.8099 29.9398C15.3178 29.9396 13.887 29.3466 12.8321 28.2914C11.7773 27.2361 11.1848 25.8051 11.1851 24.313C11.1853 22.821 11.7783 21.3901 12.8335 20.3353L22.036 11.1581C22.7396 10.4549 23.6936 10.06 24.6883 10.0603C25.1808 10.0604 25.6684 10.1576 26.1234 10.3462C26.5784 10.5348 26.9918 10.8111 27.3399 11.1595C27.6881 11.5078 27.9642 11.9213 28.1526 12.3764C28.341 12.8315 28.4378 13.3192 28.4377 13.8117C28.4376 14.3042 28.3404 14.7919 28.1518 15.2469C27.9632 15.7018 27.6869 16.1152 27.3385 16.4634L27.3226 16.4784L18.3413 25.124C18.2348 25.2264 18.1092 25.3069 17.9716 25.3608C17.834 25.4147 17.6872 25.4409 17.5395 25.438C17.3917 25.4352 17.246 25.4032 17.1106 25.344C16.9752 25.2848 16.8528 25.1996 16.7504 25.0931C16.648 24.9866 16.5675 24.861 16.5136 24.7234C16.4598 24.5858 16.4335 24.4389 16.4364 24.2912C16.4392 24.1435 16.4712 23.9977 16.5304 23.8624C16.5896 23.727 16.6748 23.6046 16.7813 23.5021L25.7541 14.8659C26.0346 14.5837 26.1915 14.2016 26.1903 13.8037C26.189 13.4059 26.0298 13.0248 25.7476 12.7443C25.6079 12.6055 25.4421 12.4955 25.2599 12.4206C25.0776 12.3458 24.8825 12.3076 24.6854 12.3082C24.2876 12.3094 23.9065 12.4687 23.626 12.7509L14.4235 21.9253C13.7906 22.5584 13.4351 23.4171 13.4353 24.3123C13.4354 24.7556 13.5228 25.1945 13.6925 25.604C13.8622 26.0136 14.1109 26.3856 14.4245 26.699C14.738 27.0124 15.1101 27.261 15.5197 27.4305C15.9293 27.6001 16.3682 27.6873 16.8115 27.6872C17.7068 27.687 18.5653 27.3312 19.1982 26.6981L26.8913 19.0106C26.996 18.9059 27.1202 18.8229 27.2569 18.7663C27.3937 18.7096 27.5402 18.6805 27.6882 18.6805C27.8362 18.6805 27.9827 18.7096 28.1195 18.7663C28.2562 18.8229 28.3804 18.9059 28.4851 19.0106C28.5897 19.1152 28.6727 19.2395 28.7294 19.3762C28.786 19.5129 28.8152 19.6595 28.8152 19.8074C28.8152 19.9554 28.786 20.102 28.7294 20.2387C28.6727 20.3754 28.5897 20.4997 28.4851 20.6043L28.4813 20.6053Z" fill="#262E3D"/>
</svg>
