<svg width="25" height="24" viewBox="0 0 25 24" fill="none" xmlns="http://www.w3.org/2000/svg">
<path fill-rule="evenodd" clip-rule="evenodd" d="M12.5 0C13.4468 0 14.2143 0.767512 14.2143 1.71429V10.2857H22.7857C23.7325 10.2857 24.5 11.0532 24.5 12C24.5 12.9468 23.7325 13.7143 22.7857 13.7143H14.2143V22.2857C14.2143 23.2325 13.4468 24 12.5 24C11.5532 24 10.7857 23.2325 10.7857 22.2857V13.7143H2.21429C1.26751 13.7143 0.5 12.9468 0.5 12C0.5 11.0532 1.26751 10.2857 2.21429 10.2857L10.7857 10.2857V1.71429C10.7857 0.767512 11.5532 0 12.5 0Z" fill="white"/>
</svg>
