<svg width="33" height="32" viewBox="0 0 33 32" fill="none" xmlns="http://www.w3.org/2000/svg">
<path d="M21.6014 11.0022L27.82 6.65826C27.8952 6.60581 27.9837 6.5758 28.0754 6.57175C28.167 6.5677 28.2579 6.58978 28.3374 6.6354C28.4169 6.68102 28.4817 6.74829 28.5243 6.82934C28.5668 6.91038 28.5854 7.00185 28.5777 7.09303L28.0819 12.9885C28.0759 13.0588 28.0546 13.127 28.0193 13.1881C27.984 13.2493 27.9357 13.302 27.8778 13.3425C27.8198 13.3829 27.7537 13.4102 27.684 13.4223C27.6143 13.4345 27.5428 13.4312 27.4746 13.4128L21.7518 11.8612C21.6633 11.8372 21.5835 11.7885 21.5217 11.7209C21.4599 11.6533 21.4187 11.5695 21.4029 11.4794C21.3871 11.3892 21.3974 11.2965 21.4326 11.212C21.4677 11.1275 21.5263 11.0547 21.6014 11.0022ZM6.41924 26.3101L12.6379 21.9662C12.713 21.9137 12.7715 21.8409 12.8067 21.7564C12.8418 21.6719 12.8521 21.5791 12.8363 21.489C12.8206 21.3989 12.7794 21.3151 12.7176 21.2475C12.6558 21.1799 12.576 21.1312 12.4875 21.1072L6.76468 19.5556C6.69642 19.5372 6.62492 19.5339 6.55525 19.546C6.48557 19.5582 6.41943 19.5854 6.36149 19.6259C6.30355 19.6664 6.25523 19.7191 6.21996 19.7802C6.18469 19.8414 6.16332 19.9095 6.15737 19.9799L5.66154 25.8754C5.65388 25.9665 5.67242 26.058 5.71498 26.139C5.75754 26.2201 5.82237 26.2874 5.90187 26.333C5.98138 26.3786 6.07226 26.4007 6.16389 26.3966C6.25551 26.3926 6.34409 26.3626 6.41924 26.3101Z" fill="#262E3D"/>
<path fill-rule="evenodd" clip-rule="evenodd" d="M11.3199 8.11125C8.86533 9.82584 7.45309 12.4747 7.23315 15.2407C7.22716 15.3697 7.19524 15.4961 7.13928 15.6126C7.08332 15.729 7.00447 15.833 6.90741 15.9184C6.81035 16.0038 6.69707 16.0689 6.5743 16.1097C6.45153 16.1506 6.32178 16.1664 6.19276 16.1562C6.06374 16.146 5.93809 16.1101 5.82328 16.0505C5.70846 15.9909 5.60684 15.9089 5.52443 15.8093C5.44203 15.7098 5.38053 15.5947 5.3436 15.471C5.30668 15.3472 5.29506 15.2173 5.30946 15.089C5.48577 12.8815 6.29394 10.7709 7.63786 9.00832C8.98178 7.24574 10.8049 5.90534 12.8904 5.14654C14.9758 4.38773 17.2359 4.24247 19.4017 4.72801C21.5675 5.21355 23.548 6.30947 25.1075 7.88543L23.4991 9.00897C21.8835 7.48244 19.789 6.55934 17.5698 6.39576C15.3506 6.23219 13.1429 6.83817 11.3199 8.11125ZM10.2148 22.9912C11.5381 24.2409 13.1889 25.0916 14.9763 25.445C16.7638 25.7984 18.615 25.6401 20.316 24.9884C22.0171 24.3367 23.4987 23.2181 24.5895 21.762C25.6804 20.3059 26.336 18.5716 26.4807 16.7595C26.4867 16.6305 26.5186 16.504 26.5746 16.3876C26.6305 16.2712 26.7094 16.1672 26.8065 16.0818C26.9035 15.9964 27.0168 15.9313 27.1396 15.8904C27.2623 15.8496 27.3921 15.8338 27.5211 15.8439C27.6501 15.8541 27.7758 15.8901 27.8906 15.9497C28.0054 16.0092 28.107 16.0913 28.1894 16.1908C28.2718 16.2904 28.3333 16.4055 28.3703 16.5292C28.4072 16.6529 28.4188 16.7828 28.4044 16.9111C28.2281 19.1187 27.4199 21.2293 26.076 22.9918C24.7321 24.7544 22.909 26.0948 20.8235 26.8536C18.7381 27.6124 16.478 27.7577 14.3122 27.2721C12.1463 26.7866 10.1659 25.6907 8.60635 24.1147L10.2148 22.9912Z" fill="#262E3D"/>
</svg>
