<svg width="18" height="20" viewBox="0 0 18 20" fill="none" xmlns="http://www.w3.org/2000/svg">
<path d="M16.2703 8.63144L3.14063 1.13925C2.8638 0.984178 2.54632 0.917065 2.23041 0.946835C1.91451 0.976605 1.61516 1.10185 1.37217 1.30591C1.12919 1.50996 0.954086 1.78316 0.87016 2.08916C0.786234 2.39517 0.797461 2.71947 0.902347 3.01894L3.26016 10.0002L0.902347 16.9814C0.819453 17.217 0.794207 17.4689 0.828723 17.7162C0.86324 17.9635 0.956514 18.1989 1.10073 18.4027C1.24495 18.6065 1.43591 18.7728 1.65762 18.8876C1.87933 19.0025 2.12532 19.0625 2.375 19.0627C2.6435 19.0621 2.90737 18.9927 3.14141 18.8611L3.14844 18.8564L16.2734 11.351C16.5141 11.2147 16.7143 11.0171 16.8536 10.7782C16.9928 10.5393 17.0662 10.2677 17.0662 9.9912C17.0662 9.71467 16.9928 9.44309 16.8536 9.2042C16.7143 8.96531 16.5141 8.76766 16.2734 8.63144H16.2703ZM2.93672 16.8174L4.92266 10.9377H9.25C9.49864 10.9377 9.7371 10.8389 9.91292 10.6631C10.0887 10.4873 10.1875 10.2488 10.1875 10.0002C10.1875 9.75154 10.0887 9.51309 9.91292 9.33727C9.7371 9.16146 9.49864 9.06269 9.25 9.06269H4.92266L2.93594 3.18144L14.8703 9.99159L2.93672 16.8174Z" fill="white"/>
</svg>
