<svg width="16" height="16" viewBox="0 0 16 16" fill="none" xmlns="http://www.w3.org/2000/svg">
<path d="M14.6163 6.90515L4.1125 0.911399C3.89104 0.787342 3.63705 0.733652 3.38433 0.757468C3.13161 0.781284 2.89213 0.881479 2.69774 1.04472C2.50335 1.20797 2.36327 1.42653 2.29613 1.67133C2.22899 1.91613 2.23797 2.17558 2.32188 2.41515L4.20813 8.00015L2.32188 13.5851C2.25556 13.7736 2.23537 13.9751 2.26298 14.173C2.29059 14.3708 2.36521 14.5591 2.48058 14.7222C2.59596 14.8852 2.74873 15.0182 2.92609 15.1101C3.10346 15.202 3.30026 15.25 3.5 15.2501C3.7148 15.2497 3.9259 15.1942 4.11313 15.0889L4.11875 15.0851L14.6188 9.08077C14.8113 8.9718 14.9714 8.81368 15.0829 8.62256C15.1943 8.43145 15.253 8.21419 15.253 7.99296C15.253 7.77174 15.1943 7.55447 15.0829 7.36336C14.9714 7.17224 14.8113 7.01413 14.6188 6.90515H14.6163ZM3.94938 13.4539L5.53813 8.75015H9C9.19891 8.75015 9.38968 8.67113 9.53033 8.53048C9.67098 8.38983 9.75 8.19906 9.75 8.00015C9.75 7.80124 9.67098 7.61047 9.53033 7.46982C9.38968 7.32917 9.19891 7.25015 9 7.25015H5.53813L3.94875 2.54515L13.4963 7.99327L3.94938 13.4539Z" fill="white"/>
</svg>
