<svg width="20" height="20" viewBox="0 0 20 20" fill="none" xmlns="http://www.w3.org/2000/svg">
<path fill-rule="evenodd" clip-rule="evenodd" d="M10.4165 1.6665C10.991 1.6665 11.5112 1.89905 11.8881 2.27513C11.9027 2.28971 11.9171 2.30449 11.9312 2.31949C12.2644 2.67215 12.4757 3.14111 12.4979 3.65906L12.4986 3.67655C12.4994 3.70087 12.4998 3.72531 12.4998 3.74984V3.76172C12.4998 3.7956 12.5204 3.82605 12.5517 3.83902C12.583 3.85201 12.6191 3.84503 12.6431 3.82106L12.6515 3.81265C12.6688 3.79531 12.6864 3.77833 12.7042 3.76172L12.7171 3.74984C13.099 3.39929 13.58 3.21711 14.065 3.20331C14.0856 3.20272 14.1062 3.20244 14.1268 3.20246C14.6593 3.20302 15.1915 3.40642 15.5978 3.81265L16.187 4.40191C16.5933 4.80814 16.7967 5.3404 16.7972 5.87283C16.7972 5.89346 16.797 5.91408 16.7964 5.93469C16.7826 6.41963 16.6004 6.90067 16.2498 7.28263L16.238 7.29547C16.2213 7.31326 16.2044 7.33084 16.187 7.34819L16.1786 7.35659C16.1546 7.38056 16.1477 7.41665 16.1607 7.44796C16.1736 7.47925 16.2041 7.49984 16.238 7.49984H16.2498C16.2744 7.49984 16.2988 7.50026 16.3231 7.5011L16.3406 7.50178C16.8586 7.52399 17.3275 7.73531 17.6802 8.06844C17.6952 8.08261 17.71 8.097 17.7245 8.1116C18.1006 8.48848 18.3332 9.00867 18.3332 9.58317V10.4165C18.3332 10.991 18.1006 11.5112 17.7245 11.8881C17.71 11.9027 17.6952 11.9171 17.6802 11.9312C17.3275 12.2644 16.8586 12.4757 16.3406 12.4979L16.3231 12.4986C16.2988 12.4994 16.2744 12.4998 16.2498 12.4998H16.238C16.2041 12.4998 16.1736 12.5204 16.1607 12.5517C16.1477 12.583 16.1546 12.6191 16.1786 12.6431L16.187 12.6515C16.2044 12.6688 16.2213 12.6864 16.238 12.7042L16.2498 12.717C16.6004 13.099 16.7826 13.58 16.7964 14.065C16.797 14.0856 16.7972 14.1062 16.7972 14.1268C16.7967 14.6593 16.5933 15.1915 16.187 15.5978L15.5978 16.187C15.1915 16.5933 14.6593 16.7966 14.1268 16.7972C14.1062 16.7972 14.0856 16.797 14.065 16.7964C13.58 16.7826 13.099 16.6004 12.7171 16.2498L12.7042 16.238C12.6864 16.2213 12.6688 16.2044 12.6515 16.187L12.6431 16.1786C12.6191 16.1546 12.583 16.1477 12.5517 16.1607C12.5204 16.1736 12.4998 16.2041 12.4998 16.238V16.2498C12.4998 16.2744 12.4994 16.2988 12.4986 16.3231L12.4979 16.3406C12.4757 16.8586 12.2644 17.3275 11.9312 17.6802C11.9171 17.6952 11.9027 17.71 11.8881 17.7245C11.5112 18.1006 10.991 18.3332 10.4165 18.3332H9.58317C9.00867 18.3332 8.48848 18.1006 8.1116 17.7245C8.097 17.71 8.08261 17.6952 8.06844 17.6802C7.73531 17.3275 7.52399 16.8586 7.50178 16.3406L7.5011 16.3231C7.50026 16.2988 7.49984 16.2744 7.49984 16.2498V16.238C7.49984 16.2041 7.47925 16.1736 7.44796 16.1607C7.41664 16.1477 7.38056 16.1546 7.35659 16.1786L7.34819 16.187C7.33084 16.2044 7.31326 16.2213 7.29546 16.238L7.28262 16.2498C6.90067 16.6004 6.41963 16.7826 5.93469 16.7964C5.91407 16.797 5.89346 16.7972 5.87283 16.7972C5.3404 16.7966 4.80814 16.5933 4.40191 16.187L3.81265 15.5978C3.40642 15.1915 3.20302 14.6593 3.20246 14.1268C3.20244 14.1062 3.20272 14.0856 3.20331 14.065C3.21711 13.58 3.39929 13.099 3.74984 12.717L3.76172 12.7042C3.77833 12.6864 3.79531 12.6688 3.81265 12.6515L3.82106 12.6431C3.84503 12.6191 3.85201 12.583 3.83902 12.5517C3.82605 12.5204 3.7956 12.4998 3.76172 12.4998H3.74984C3.72531 12.4998 3.70088 12.4994 3.67655 12.4986L3.65906 12.4979C3.14111 12.4757 2.67215 12.2644 2.31949 11.9312C2.30449 11.9171 2.28971 11.9027 2.27513 11.8881C1.89904 11.5112 1.6665 10.991 1.6665 10.4165V9.58317C1.6665 9.00867 1.89904 8.48848 2.27513 8.1116C2.28971 8.097 2.30449 8.08261 2.31949 8.06844C2.67215 7.73531 3.14111 7.52399 3.65906 7.50178L3.67655 7.5011C3.70088 7.50026 3.72531 7.49984 3.74984 7.49984H3.76172C3.7956 7.49984 3.82605 7.47925 3.83902 7.44796C3.85201 7.41665 3.84503 7.38056 3.82106 7.35659L3.81265 7.34819C3.79531 7.33084 3.77833 7.31326 3.76172 7.29547L3.74984 7.28263C3.39929 6.90067 3.21711 6.41963 3.20331 5.93469C3.20272 5.91408 3.20244 5.89346 3.20246 5.87283C3.20302 5.3404 3.40642 4.80814 3.81265 4.40191L4.40191 3.81265C4.80814 3.40642 5.3404 3.20302 5.87283 3.20246C5.89346 3.20244 5.91408 3.20272 5.93469 3.20331C6.41963 3.21711 6.90067 3.39929 7.28262 3.74984L7.29547 3.76172C7.31326 3.77833 7.33084 3.79531 7.34819 3.81265L7.35659 3.82106C7.38056 3.84503 7.41665 3.85201 7.44796 3.83902C7.47925 3.82605 7.49984 3.7956 7.49984 3.76172V3.74984C7.49984 3.72531 7.50026 3.70087 7.5011 3.67655L7.50178 3.65906C7.52399 3.14111 7.73531 2.67215 8.06844 2.31949C8.08261 2.30449 8.097 2.28971 8.1116 2.27513C8.48848 1.89905 9.00867 1.6665 9.58317 1.6665H10.4165ZM9.1665 16.2498C9.1665 16.48 9.35305 16.6665 9.58317 16.6665H10.4165C10.6466 16.6665 10.8332 16.48 10.8332 16.2498V16.238C10.8332 15.5216 11.2675 14.8889 11.9133 14.6211C12.5605 14.3527 13.3154 14.4939 13.8216 15.0001L13.83 15.0085C13.9927 15.1712 14.2565 15.1712 14.4193 15.0085L15.0085 14.4193C15.1712 14.2565 15.1712 13.9927 15.0085 13.83L15.0001 13.8216C14.4939 13.3154 14.3527 12.5604 14.6211 11.9133C14.8889 11.2675 15.5217 10.8332 16.238 10.8332H16.2498C16.48 10.8332 16.6665 10.6466 16.6665 10.4165V9.58317C16.6665 9.35305 16.48 9.1665 16.2498 9.1665H16.238C15.5217 9.1665 14.8889 8.73219 14.6211 8.08638C14.3527 7.43923 14.4939 6.68427 15.0001 6.17808L15.0085 6.16968C15.1712 6.00696 15.1712 5.74314 15.0085 5.58042L14.4193 4.99116C14.2565 4.82845 13.9927 4.82845 13.83 4.99116L13.8216 4.99957C13.3154 5.50576 12.5605 5.64693 11.9133 5.37857C11.2675 5.11076 10.8332 4.47801 10.8332 3.76172V3.74984C10.8332 3.51972 10.6466 3.33317 10.4165 3.33317H9.58317C9.35305 3.33317 9.1665 3.51972 9.1665 3.74984V3.76172C9.1665 4.47801 8.7322 5.11076 8.08637 5.37857C7.43922 5.64693 6.68427 5.50576 6.17808 4.99957L6.16968 4.99116C6.00696 4.82845 5.74314 4.82845 5.58042 4.99116L4.99116 5.58042C4.82845 5.74314 4.82845 6.00696 4.99116 6.16968L4.99956 6.17808C5.50577 6.68427 5.64693 7.43923 5.37857 8.08638C5.11076 8.73219 4.47802 9.1665 3.76172 9.1665H3.74984C3.51972 9.1665 3.33317 9.35305 3.33317 9.58317V10.4165C3.33317 10.6466 3.51972 10.8332 3.74984 10.8332H3.76172C4.47802 10.8332 5.11076 11.2675 5.37856 11.9133C5.64693 12.5604 5.50577 13.3154 4.99957 13.8216L4.99116 13.83C4.82845 13.9927 4.82845 14.2565 4.99116 14.4193L5.58042 15.0085C5.74314 15.1712 6.00696 15.1712 6.16967 15.0085L6.17808 15.0001C6.68427 14.4939 7.43922 14.3527 8.08637 14.6211C8.73217 14.8889 9.1665 15.5216 9.1665 16.238V16.2498Z" fill="#262E3D"/>
<path fill-rule="evenodd" clip-rule="evenodd" d="M9.99984 11.6665C10.9203 11.6665 11.6665 10.9203 11.6665 9.99984C11.6665 9.07936 10.9203 8.33317 9.99984 8.33317C9.07936 8.33317 8.33317 9.07936 8.33317 9.99984C8.33317 10.9203 9.07936 11.6665 9.99984 11.6665ZM9.99984 13.3332C11.8408 13.3332 13.3332 11.8408 13.3332 9.99984C13.3332 8.15889 11.8408 6.6665 9.99984 6.6665C8.15889 6.6665 6.6665 8.15889 6.6665 9.99984C6.6665 11.8408 8.15889 13.3332 9.99984 13.3332Z" fill="#262E3D"/>
</svg>
