<svg width="16" height="16" viewBox="0 0 16 16" fill="none" xmlns="http://www.w3.org/2000/svg">
<path fill-rule="evenodd" clip-rule="evenodd" d="M8.33337 1.3335C8.79297 1.3335 9.20912 1.51953 9.51063 1.8204C9.52231 1.83206 9.53382 1.84389 9.54516 1.85588C9.81166 2.13801 9.98072 2.51318 9.99849 2.92754L9.99903 2.94153C9.9997 2.96099 10 2.98054 10 3.00016V3.00967C10 3.03677 10.0165 3.06113 10.0415 3.07151C10.0666 3.0819 10.0955 3.07632 10.1146 3.05714L10.1214 3.05042C10.1352 3.03654 10.1493 3.02296 10.1635 3.00967L10.1738 3.00016C10.4794 2.71972 10.8642 2.57398 11.2522 2.56294C11.2687 2.56247 11.2851 2.56225 11.3016 2.56226C11.7276 2.56271 12.1534 2.72543 12.4784 3.05042L12.9498 3.52182C13.2748 3.84681 13.4375 4.27261 13.4379 4.69856C13.438 4.71506 13.4377 4.73155 13.4373 4.74805C13.4262 5.136 13.2805 5.52083 13 5.82639L12.9905 5.83667C12.9772 5.8509 12.9637 5.86497 12.9498 5.87884L12.9431 5.88557C12.9239 5.90474 12.9183 5.93361 12.9287 5.95866C12.9391 5.98369 12.9634 6.00016 12.9905 6.00016H13C13.0197 6.00016 13.0392 6.0005 13.0587 6.00118L13.0727 6.00172C13.487 6.01948 13.8622 6.18854 14.1443 6.45505C14.1563 6.46638 14.1681 6.47789 14.1798 6.48957C14.4807 6.79108 14.6667 7.20723 14.6667 7.66683V8.3335C14.6667 8.7931 14.4807 9.20924 14.1798 9.51075C14.1681 9.52243 14.1563 9.53394 14.1443 9.54528C13.8622 9.81178 13.487 9.98084 13.0727 9.99861L13.0587 9.99915C13.0392 9.99982 13.0197 10.0002 13 10.0002H12.9905C12.9634 10.0002 12.9391 10.0166 12.9287 10.0417C12.9183 10.0667 12.9239 10.0956 12.9431 10.1148L12.9498 10.1215C12.9637 10.1354 12.9772 10.1494 12.9905 10.1637L13 10.1739C13.2805 10.4795 13.4262 10.8643 13.4373 11.2523C13.4377 11.2688 13.438 11.2853 13.4379 11.3018C13.4375 11.7277 13.2748 12.1535 12.9498 12.4785L12.4784 12.9499C12.1534 13.2749 11.7276 13.4376 11.3016 13.4381C11.2851 13.4381 11.2687 13.4379 11.2522 13.4374C10.8642 13.4263 10.4794 13.2806 10.1738 13.0002L10.1635 12.9907C10.1493 12.9774 10.1352 12.9638 10.1214 12.9499L10.1146 12.9432C10.0955 12.924 10.0666 12.9184 10.0415 12.9288C10.0165 12.9392 10 12.9636 10 12.9907V13.0002C10 13.0198 9.9997 13.0393 9.99903 13.0588L9.99849 13.0728C9.98072 13.4871 9.81166 13.8623 9.54516 14.1444C9.53382 14.1564 9.52231 14.1683 9.51063 14.1799C9.20912 14.4808 8.79298 14.6668 8.33337 14.6668H7.66671C7.20711 14.6668 6.79096 14.4808 6.48945 14.1799C6.47777 14.1683 6.46626 14.1564 6.45493 14.1444C6.18842 13.8623 6.01936 13.4871 6.00159 13.0728L6.00105 13.0588C6.00038 13.0393 6.00004 13.0198 6.00004 13.0002V12.9907C6.00004 12.9636 5.98357 12.9392 5.95854 12.9288C5.93349 12.9184 5.90462 12.924 5.88544 12.9432L5.87872 12.9499C5.86484 12.9638 5.85078 12.9774 5.83654 12.9907L5.82627 13.0002C5.52071 13.2806 5.13587 13.4263 4.74792 13.4374C4.73143 13.4379 4.71493 13.4381 4.69844 13.4381C4.27249 13.4376 3.84668 13.2749 3.5217 12.9499L3.05029 12.4785C2.72531 12.1535 2.56259 11.7277 2.56214 11.3018C2.56212 11.2853 2.56235 11.2688 2.56282 11.2523C2.57386 10.8643 2.7196 10.4795 3.00004 10.1739L3.00955 10.1637C3.02283 10.1494 3.03642 10.1354 3.05029 10.1215L3.05702 10.1148C3.07619 10.0956 3.08178 10.0667 3.07139 10.0417C3.06101 10.0166 3.03665 10.0002 3.00955 10.0002H3.00004C2.98042 10.0002 2.96087 9.99982 2.94141 9.99915L2.92742 9.99861C2.51306 9.98084 2.13789 9.81178 1.85576 9.54528C1.84376 9.53394 1.83194 9.52243 1.82028 9.51075C1.51941 9.20924 1.33337 8.7931 1.33337 8.3335V7.66683C1.33337 7.20723 1.51941 6.79108 1.82028 6.48957C1.83194 6.47789 1.84376 6.46638 1.85576 6.45505C2.13789 6.18854 2.51306 6.01948 2.92742 6.00172L2.94141 6.00118C2.96087 6.0005 2.98042 6.00016 3.00004 6.00016H3.00955C3.03665 6.00016 3.06101 5.98369 3.07139 5.95866C3.08178 5.93361 3.07619 5.90474 3.05702 5.88557L3.05029 5.87884C3.03642 5.86497 3.02283 5.8509 3.00955 5.83667L3.00004 5.82639C2.7196 5.52083 2.57386 5.136 2.56282 4.74805C2.56235 4.73155 2.56212 4.71506 2.56214 4.69856C2.56259 4.27261 2.72531 3.84681 3.05029 3.52182L3.5217 3.05042C3.84668 2.72543 4.27249 2.56271 4.69844 2.56226C4.71493 2.56225 4.73143 2.56247 4.74792 2.56294C5.13587 2.57398 5.52071 2.71972 5.82627 3.00016L5.83655 3.00967C5.85078 3.02296 5.86484 3.03654 5.87872 3.05042L5.88544 3.05714C5.90462 3.07632 5.93349 3.0819 5.95854 3.07151C5.98357 3.06113 6.00004 3.03677 6.00004 3.00967V3.00016C6.00004 2.98054 6.00038 2.96099 6.00105 2.94153L6.00159 2.92754C6.01936 2.51318 6.18842 2.13801 6.45493 1.85588C6.46626 1.84389 6.47777 1.83206 6.48945 1.8204C6.79096 1.51953 7.20711 1.3335 7.66671 1.3335H8.33337ZM7.33337 13.0002C7.33337 13.1843 7.48261 13.3335 7.66671 13.3335H8.33337C8.51747 13.3335 8.66671 13.1843 8.66671 13.0002V12.9907C8.66671 12.4176 9.01417 11.9114 9.53081 11.6972C10.0485 11.4825 10.6525 11.5954 11.0574 12.0004L11.0642 12.0071C11.1943 12.1373 11.4054 12.1373 11.5356 12.0071L12.007 11.5357C12.1372 11.4055 12.1372 11.1945 12.007 11.0643L12.0003 11.0576C11.5953 10.6526 11.4824 10.0486 11.6971 9.53092C11.9113 9.01428 12.4175 8.66683 12.9905 8.66683H13C13.1841 8.66683 13.3334 8.51759 13.3334 8.3335V7.66683C13.3334 7.48273 13.1841 7.3335 13 7.3335H12.9905C12.4175 7.3335 11.9113 6.98604 11.6971 6.4694C11.4824 5.95168 11.5953 5.34771 12.0003 4.94275L12.007 4.93603C12.1372 4.80586 12.1372 4.5948 12.007 4.46463L11.5356 3.99322C11.4054 3.86305 11.1943 3.86305 11.0642 3.99322L11.0574 3.99995C10.6525 4.4049 10.0485 4.51784 9.53082 4.30315C9.01415 4.0889 8.66671 3.5827 8.66671 3.00967V3.00016C8.66671 2.81607 8.51747 2.66683 8.33337 2.66683H7.66671C7.48261 2.66683 7.33337 2.81607 7.33337 3.00016V3.00967C7.33337 3.5827 6.98593 4.0889 6.46927 4.30315C5.95154 4.51784 5.34759 4.4049 4.94264 3.99995L4.93591 3.99322C4.80574 3.86305 4.59468 3.86305 4.46451 3.99322L3.9931 4.46463C3.86293 4.5948 3.86293 4.80586 3.9931 4.93603L3.99982 4.94275C4.40478 5.34771 4.51772 5.95168 4.30302 6.4694C4.08878 6.98604 3.58259 7.3335 3.00955 7.3335H3.00004C2.81595 7.3335 2.66671 7.48273 2.66671 7.66683V8.3335C2.66671 8.51759 2.81595 8.66683 3.00004 8.66683H3.00955C3.58259 8.66683 4.08878 9.01428 4.30302 9.53092C4.51772 10.0486 4.40478 10.6526 3.99983 11.0576L3.9931 11.0643C3.86293 11.1945 3.86293 11.4055 3.9931 11.5357L4.46451 12.0071C4.59468 12.1373 4.80574 12.1373 4.93591 12.0071L4.94263 12.0004C5.34759 11.5954 5.95155 11.4825 6.46927 11.6972C6.98591 11.9114 7.33337 12.4176 7.33337 12.9907V13.0002Z" fill="#262E3D"/>
<path fill-rule="evenodd" clip-rule="evenodd" d="M7.99998 9.3335C8.73636 9.3335 9.33331 8.73654 9.33331 8.00016C9.33331 7.26378 8.73636 6.66683 7.99998 6.66683C7.2636 6.66683 6.66665 7.26378 6.66665 8.00016C6.66665 8.73654 7.2636 9.3335 7.99998 9.3335ZM7.99998 10.6668C9.47274 10.6668 10.6666 9.47292 10.6666 8.00016C10.6666 6.5274 9.47274 5.3335 7.99998 5.3335C6.52722 5.3335 5.33331 6.5274 5.33331 8.00016C5.33331 9.47292 6.52722 10.6668 7.99998 10.6668Z" fill="#262E3D"/>
</svg>
