<svg width="16" height="16" viewBox="0 0 16 16" fill="none" xmlns="http://www.w3.org/2000/svg">
<path fill-rule="evenodd" clip-rule="evenodd" d="M8 0C5.91528 1.8234 3.17437 2.94503 0.166107 2.98492C0.0568637 3.62087 0 4.27419 0 4.94049C0 10.0464 3.33923 14.3902 8 16C12.6608 14.3902 16 10.0464 16 4.94049C16 4.27419 15.9431 3.62087 15.8339 2.98492C12.8256 2.94503 10.0847 1.8234 8 0ZM9 11.7811C9 12.3208 8.55228 12.7583 8 12.7583C7.44772 12.7583 7 12.3208 7 11.7811C7 11.2414 7.44772 10.8039 8 10.8039C8.55228 10.8039 9 11.2414 9 11.7811ZM9 4.94046C9 4.40074 8.55229 3.96322 8 3.96322C7.44772 3.96322 7 4.40074 7 4.94046V7.87216C7 8.41188 7.44772 8.8494 8 8.8494C8.55229 8.8494 9 8.41188 9 7.87216V4.94046Z" fill="#21272A"/>
</svg>
