<svg width="17" height="17" viewBox="0 0 17 17" fill="none" xmlns="http://www.w3.org/2000/svg">
<path fill-rule="evenodd" clip-rule="evenodd" d="M15.5316 13.512C14.9068 14.1629 13.8937 14.1629 13.2689 13.512L8.00024 8.02384L2.73161 13.512C2.10677 14.1629 1.09371 14.1629 0.468872 13.512C-0.155968 12.8611 -0.155968 11.8059 0.468872 11.155L6.86887 4.48831C7.49371 3.83744 8.50677 3.83744 9.13161 4.48831L15.5316 11.155C16.1565 11.8059 16.1565 12.8611 15.5316 13.512Z" fill="#21272A"/>
<path fill-rule="evenodd" clip-rule="evenodd" d="M15.5316 13.512C14.9068 14.1629 13.8937 14.1629 13.2689 13.512L8.00024 8.02384L2.73161 13.512C2.10677 14.1629 1.09371 14.1629 0.468872 13.512C-0.155968 12.8611 -0.155968 11.8059 0.468872 11.155L6.86887 4.48831C7.49371 3.83744 8.50677 3.83744 9.13161 4.48831L15.5316 11.155C16.1565 11.8059 16.1565 12.8611 15.5316 13.512Z" fill="#21272A"/>
</svg>
