<svg width="16" height="16" viewBox="0 0 16 16" fill="none" xmlns="http://www.w3.org/2000/svg">
<path fill-rule="evenodd" clip-rule="evenodd" d="M0.166107 2.98492C3.17437 2.94503 5.91528 1.8234 8 0C10.0847 1.8234 12.8256 2.94503 15.8339 2.98492C15.9431 3.62087 16 4.27419 16 4.94049C16 10.0464 12.6608 14.3902 8 16C3.33923 14.3902 0 10.0464 0 4.94049C0 4.27419 0.0568637 3.62087 0.166107 2.98492ZM11.7071 6.6087C12.0976 6.22707 12.0976 5.60832 11.7071 5.22668C11.3166 4.84505 10.6834 4.84505 10.2929 5.22668L7 8.44461L5.70711 7.18115C5.31658 6.79952 4.68342 6.79952 4.29289 7.18115C3.90237 7.56279 3.90237 8.18154 4.29289 8.56317L6.29289 10.5176C6.68342 10.8993 7.31658 10.8993 7.70711 10.5176L11.7071 6.6087Z" fill="#21272A"/>
</svg>
